<svg width="41" height="32" viewBox="0 0 41 32" fill="none" xmlns="http://www.w3.org/2000/svg">
<g id="like 1" clip-path="url(#clip0_24_66)">
<path id="Vector" d="M23.8798 31.4137C12.4673 31.4137 12.3794 31.0435 10.9661 30.2113C10.2165 29.7704 8.80197 29.4651 3.63535 29.2019C3.26052 29.1828 2.9039 29.0703 2.66473 28.8435C2.55485 28.7389 -0.026886 25.7946 -0.026886 21.0789C-0.026886 16.432 1.82089 14.314 1.89996 14.2158C2.01268 14.0745 2.16952 13.9581 2.3557 13.8773C2.54188 13.7966 2.75128 13.7542 2.96417 13.7543C7.20659 13.7543 13.0877 9.51971 17.0413 2.12778C17.725 0.849319 17.8663 0.00830078 20.3777 0.00830078C21.8061 0.00830078 23.4071 0.808078 24.1976 1.83422C25.8193 3.93063 24.9956 8.43327 24.234 10.8395C26.8239 10.8233 31.5121 10.7957 33.7428 10.7957C36.8457 10.7957 38.8994 12.2426 38.9615 14.3577C38.9823 15.0558 38.8648 15.9474 38.6068 16.4089C39.2899 16.9416 40.1708 17.7448 40.2091 18.7793C40.2568 20.1147 39.1386 21.1315 38.4247 21.7147C38.5885 22.1031 38.9163 22.6181 38.8842 23.2338C38.8057 24.7479 37.3108 25.7234 36.3797 26.2325C36.457 26.6469 36.5172 27.4285 36.3471 28.0329C35.6753 30.445 31.1516 31.4137 23.8798 31.4137L23.8798 31.4137ZM4.30147 27.2106C8.80193 27.5018 11.2078 27.896 12.4767 28.6427C13.4586 29.2211 13.3073 29.4504 23.8798 29.4504C27.1044 29.4504 33.4112 29.3453 33.8947 27.6142C34.0868 26.9219 33.1532 26.2415 33.1501 26.2361C32.8951 25.7441 33.179 25.1667 33.8005 24.9541C33.8106 24.9502 36.3176 24.2482 36.3748 23.1523C36.4124 22.4517 35.7971 22.031 35.7833 22.0133C35.4173 21.5695 35.551 20.9607 36.106 20.6582C36.1123 20.6543 37.7365 19.8845 37.697 18.8348C37.6662 18.0012 36.2617 17.4144 36.219 17.3948C35.9051 17.2544 35.6765 17.0114 35.605 16.7335C35.5346 16.4561 35.6138 16.165 35.8341 15.9396C35.8341 15.9396 36.4727 15.1462 36.4494 14.4019C36.4036 12.8088 34.2124 12.7587 33.7421 12.7587C30.5746 12.7587 22.4396 12.7837 22.4396 12.7837C22.0007 12.7852 21.6208 12.6232 21.3848 12.3487C21.1493 12.0742 21.1317 11.7335 21.2699 11.4213C22.4967 8.65865 23.1817 4.32444 22.044 2.8437C21.7087 2.40723 21.6321 1.97126 20.3764 1.97126C20.2025 1.97126 19.7881 2.07878 19.3562 2.88396C15.1602 10.7344 8.89297 15.2753 3.75963 15.6848C3.31699 16.4743 2.48445 18.1102 2.48445 21.0785C2.48445 24.1082 3.71187 26.4521 4.30147 27.2106Z" fill="black"/>
</g>
<defs>
<clipPath id="clip0_24_66">
<rect width="40.1827" height="31.4216" fill="white"/>
</clipPath>
</defs>
</svg>
