<svg width="29" height="30" viewBox="0 0 29 30" fill="none" xmlns="http://www.w3.org/2000/svg">
<g id="notifcations 1">
<path id="Vector" d="M24.9264 19.9986C24.8324 19.8814 24.74 19.7643 24.6494 19.6512C23.4033 18.092 22.6494 17.151 22.6494 12.7371C22.6494 10.452 22.121 8.57695 21.0793 7.1707C20.3113 6.13184 19.2731 5.34375 17.9046 4.76133C17.887 4.75119 17.8713 4.7379 17.8582 4.72207C17.366 3.01699 16.0191 1.875 14.5 1.875C12.9809 1.875 11.6345 3.01699 11.1423 4.72031C11.1292 4.73556 11.1137 4.74843 11.0964 4.7584C7.90304 6.11836 6.35109 8.72754 6.35109 12.7354C6.35109 17.151 5.59833 18.092 4.35111 19.6494C4.26048 19.7625 4.16816 19.8773 4.07414 19.9969C3.83126 20.2999 3.67738 20.6685 3.6307 21.0592C3.58403 21.4498 3.64651 21.8461 3.81076 22.2012C4.16023 22.9629 4.90505 23.4357 5.75523 23.4357H23.2509C24.0972 23.4357 24.8369 22.9635 25.1875 22.2053C25.3524 21.8501 25.4155 21.4535 25.3692 21.0624C25.323 20.6713 25.1693 20.3021 24.9264 19.9986ZM14.5 28.125C15.3185 28.1243 16.1215 27.8945 16.8239 27.4599C17.5263 27.0253 18.102 26.4021 18.4897 25.6564C18.508 25.6207 18.517 25.5807 18.5159 25.5403C18.5148 25.4999 18.5037 25.4605 18.4835 25.4258C18.4633 25.3912 18.4348 25.3626 18.4008 25.3427C18.3667 25.3229 18.3283 25.3125 18.2892 25.3125H10.7118C10.6727 25.3124 10.6342 25.3227 10.6001 25.3425C10.566 25.3623 10.5374 25.391 10.5172 25.4256C10.4969 25.4602 10.4857 25.4997 10.4846 25.5401C10.4835 25.5806 10.4925 25.6207 10.5108 25.6564C10.8985 26.402 11.474 27.0251 12.1764 27.4597C12.8787 27.8943 13.6816 28.1242 14.5 28.125Z" fill="black"/>
</g>
</svg>
