<svg width="45" height="41" viewBox="0 0 45 41" fill="none" xmlns="http://www.w3.org/2000/svg">
<g id="pen 1">
<path id="Vector" d="M21.375 31.025L35.2425 18.3902C32.9094 17.5027 30.7904 16.206 29.0063 14.5738C27.214 12.9478 25.7901 11.0167 24.8156 8.89017L10.9481 21.525C9.86626 22.5107 9.32438 23.0044 8.85938 23.5477C8.31021 24.1888 7.8393 24.8825 7.45501 25.6165C7.13063 26.2383 6.88875 26.9011 6.405 28.2234L3.85126 35.1985C3.73372 35.5179 3.71628 35.8608 3.8009 36.1887C3.88552 36.5166 4.06884 36.8165 4.33026 37.0547C4.59168 37.2928 4.92084 37.4599 5.28073 37.537C5.64062 37.6141 6.01698 37.5982 6.3675 37.4911L14.0231 35.1643C15.4763 34.7236 16.2019 34.5032 16.8844 34.2077C17.6906 33.8575 18.4519 33.4287 19.155 32.9281C19.7513 32.5045 20.2931 32.0108 21.375 31.025ZM39.09 14.8847C40.4727 13.6249 41.2495 11.9163 41.2495 10.1347C41.2495 8.35309 40.4727 6.64445 39.09 5.38467C37.7073 4.12488 35.832 3.41714 33.8766 3.41714C31.9211 3.41714 30.0458 4.12488 28.6631 5.38467L27 6.89996L27.0713 7.08958C27.8908 9.22623 29.232 11.1655 30.9938 12.7613C32.7976 14.4144 35.0005 15.6605 37.4269 16.4L39.09 14.8847Z" fill="white"/>
</g>
</svg>
