<svg width="35" height="34" viewBox="0 0 35 34" fill="none" xmlns="http://www.w3.org/2000/svg">
<g id="search 1">
<path id="Vector" d="M28.4156 28.5515L19.2835 19.6803C18.5544 20.2838 17.7158 20.7509 16.7679 21.0814C15.82 21.412 14.8672 21.5773 13.9096 21.5773C11.5743 21.5773 9.59777 20.7919 7.98 19.2213C6.36222 17.6498 5.55333 15.7302 5.55333 13.4626C5.55333 11.195 6.36125 9.27444 7.97708 7.701C9.59388 6.12661 11.5694 5.33942 13.9037 5.33942C16.239 5.33942 18.2165 6.12519 19.8362 7.69675C21.456 9.26831 22.2658 11.1888 22.2658 13.4583C22.2658 14.4424 22.0865 15.3949 21.7277 16.3158C21.368 17.2366 20.8965 18.0243 20.3131 18.6788L29.4452 27.5485L28.4142 28.5515H28.4156ZM13.9096 20.1592C15.8443 20.1592 17.4781 19.5122 18.811 18.2183C20.143 16.9244 20.809 15.3373 20.809 13.4569C20.809 11.5775 20.143 9.99081 18.811 8.69692C17.4791 7.40303 15.8458 6.75608 13.911 6.75608C11.9763 6.75608 10.3425 7.40303 9.00958 8.69692C7.67763 9.99081 7.01166 11.5775 7.01166 13.4569C7.01166 15.3364 7.67763 16.923 9.00958 18.2169C10.3415 19.5108 11.9749 20.1592 13.9096 20.1592Z" fill="white"/>
</g>
</svg>
